<svg width="30" height="30" viewBox="0 0 16 16" fill="none" xmlns="http://www.w3.org/2000/svg">
<rect width="30" height="30" rx="0" fill="#000F61"/>
<path fill-rule="evenodd" clip-rule="evenodd" d="M12.6942 7.0689L11.7291 7.40222L8.62823 8.46144C8.62823 8.4639 8.63071 8.46638 8.63318 8.46884C8.89055 8.86389 9.30136 9.10832 9.78888 9.14289C10.2544 9.17466 10.7441 9.00559 11.018 8.58295L11.0262 8.57007L12.568 8.67624C12.1621 9.79965 11.1129 10.5083 9.71216 10.412C8.69258 10.3428 7.83632 9.7478 7.37849 8.90339C7.25182 8.66764 7.15631 8.41513 7.09435 8.14824L7.09142 8.13552V9.09351C7.09142 10.6144 6.09163 11.6218 4.57957 11.6218C3.35213 11.6218 2.34056 10.8281 2.12835 9.68622L2.12216 9.65151H3.62432C3.71094 10.0688 4.08462 10.2762 4.5771 10.2762C5.35864 10.2762 5.63569 9.72927 5.64115 9.20805L5.64123 9.19227V8.5355C5.29972 8.81945 4.86169 8.99474 4.34695 8.99474C2.9774 8.99474 2.06143 8.01953 2.04324 6.56739L2.04297 6.52324V4.62668C2.04297 4.58121 2.07926 4.54423 2.12445 4.5431L2.12658 4.54308H3.40708C3.45255 4.54308 3.48953 4.57936 3.49066 4.62455L3.49069 4.62668V6.52324C3.49069 6.84175 3.59957 7.62937 4.54245 7.62937C5.18189 7.62937 5.62972 7.16717 5.63862 6.54223L5.63875 6.52324V4.62668C5.63875 4.58121 5.67505 4.54423 5.72024 4.5431L5.72236 4.54308H7.00287C7.04833 4.54308 7.08532 4.57936 7.08645 4.62455L7.08648 4.62668V6.8294C7.39582 5.42946 8.66783 4.41962 10.1131 4.51838C11.3361 4.60277 12.3332 5.36768 12.642 6.63601C12.6772 6.78087 12.6979 6.91919 12.6942 7.0689ZM8.37097 7.29341L8.37412 7.26478C8.48422 6.3233 9.191 5.72614 10.0142 5.78236C10.4745 5.81446 10.8556 6.02679 11.0956 6.36012L8.37097 7.29341Z" fill="white"/>
<path d="M12.7527 9.86558C12.7527 9.81835 12.8037 9.78872 12.8448 9.81212L14.3051 10.6452C14.3465 10.6688 14.3465 10.7285 14.3051 10.7521L12.8448 11.5851C12.8037 11.6085 12.7527 11.5789 12.7527 11.5316L12.7527 10.6986L12.7527 9.86558Z" fill="white"/>
</svg>
